 http://thedesiadda.com/forums/forum.php

Enjoy exclusice releases from TDA@Dibya!!!



*********** ****    ****      ***      ******** *********** ****    *** **********
          *+*     +*+*+* *+*+*+   *+* *+*   *+*    *+*    *+*     *+*+*   *+* *+*        
          +*+     +*+ +*+*+ +*+  +*+   +*+  +*+           +*+     *+*+*+  +*+ +*+        
          +$+     +$+  +*+  +$+ +$++*++$++* *$*           +$+     +$+ +*+ +$+ +$++*++$  
          +$+     +$+       +$+ +$+     +$+ +$+   +$+$    +$+     +$+  +$+$+$ +$+        
          $+$     $+$       $+$ $+$     $+$ $+$    $+$    $+$     $+$   $+$+$ $+$        
      $$$$$$$$$$$ $$$       $$$ $$$     $$$  $$$$$$$$ $$$$$$$$$$$ $$$    $$$$ $$$$$$$$$$    
                                               



                          Another Fine Release Brought to you from - IMAGiNE                  
                                               

********************************************************************************************************************                                
          Harry Potter And The Deathly Hallows Part 1 TS  XViD - IMAGiNE
********************************************************************************************************************

Ripper ...........: IMAGiNE                                        IMDB Rating.......:8.2/10                            
Video Codec.......: XVID                                         Release Date......:27/11/10
Audio Codec.......:MP3                                           Theatre Date......:19/11/10
Audio Bitrate.....:128                                              Runtime.......:2hr 09mins
Subtitles.........:NIL                                                 Language..........:ENGLISH
Resolution...... 720 x 304                                      IMDb URL.......... http://www.imdb.com/title/tt0926084/

DETAILS:

Video
ID                               : 0
Format                           : MPEG-4 Visual
Format profile                   : Advanced Simple@L5
Format settings, BVOP            : Yes
Format settings, QPel            : No
Format settings, GMC             : No warppoints
Format settings, Matrix          : Default (MPEG)
Muxing mode                      : Packed bitstream
Codec ID                         : XVID
Codec ID/Hint                    : XviD
Duration                         : 2h 9mn
Bit rate                         : 1 384 Kbps
Width                            : 720 pixels
Height                           : 304 pixels
Display aspect ratio             : 2.35
Frame rate                       : 25.000 fps
Resolution                       : 24 bits
Colorimetry                      : 4:2:0
Scan type                        : Progressive
Bits/(Pixel*Frame)               : 0.253
Stream size                      : 1.25 GiB (91%)
Writing library                  : XviD 1.2.1 (UTC 2008-12-04)

Audio
ID                               : 1
Format                           : MPEG Audio
Format version                   : Version 1
Format profile                   : Layer 3
Codec ID                         : 55
Codec ID/Hint                    : MP3
Duration                         : 2h 9mn
Bit rate mode                    : Constant
Bit rate                         : 128 Kbps
Channel(s)                       : 2 channels
Sampling rate                    : 44.1 KHz
Resolution                       : 16 bits
Stream size                      : 118 MiB (8%)
Alignment                        : Split accross interleaves
Interleave, duration             : 40 ms (1.00 video frame)
Interleave, preload duration     : 500 ms


SOURCES:

VIDEO:Harry.Potter.und.die.Heiligtuemer.des.Todes.Teil.1.TELESYNC.German.720p.x264-PFD
AUDIO:OWN

NOTES:

IMAGiNE bringing you another release..........Harry Potter And The Deathly Hallows Part 1

Here we go with a decent TS of potter......at last
For the video we used PFD's video,which was pretty nice ....but still had issues like too dark,colouring etc...
but still 100x better than all other cams.
The audio is our own line and pretty decent line if we so say.
So for this it was a case of fixing up the video....brightness,sharpness,rgb colours,white balance and after that syncing
our line to the video.
Overall not too be for a TS and more than likely best source until that screener gets leaked properly.
Video is still very dark in places and also the contrast is off,but didn't have much choice IF you wanted to see what was
going on.

Just to show you what we mean about how dark it was :
PFD